<?xml version="1.0" standalone="no"?>
<!DOCTYPE svg PUBLIC "-//W3C//DTD SVG 20010904//EN"
 "http://www.w3.org/TR/2001/REC-SVG-20010904/DTD/svg10.dtd">
<svg version="1.0" xmlns="http://www.w3.org/2000/svg"
 width="152.000000pt" height="165.000000pt" viewBox="0 0 152.000000 165.000000"
 preserveAspectRatio="xMidYMid meet">

<g transform="translate(0.000000,165.000000) scale(0.100000,-0.100000)"
fill="#000000" stroke="none">
<path d="M708 1450 c-263 -31 -493 -220 -577 -473 -83 -247 -17 -519 170 -706
274 -274 704 -274 978 0 274 274 274 704 0 978 -154 154 -358 225 -571 201z
m22 -250 l0 -110 -196 0 -195 0 26 34 c70 92 234 183 333 185 l32 1 0 -110z
m226 95 c79 -23 163 -74 226 -137 32 -32 58 -63 58 -70 0 -8 -29 -9 -107 -5
-58 4 -144 7 -190 7 l-83 0 0 110 c0 126 -2 124 96 95z m183 -349 c-2 -2 -76
-68 -164 -145 -118 -103 -167 -141 -186 -141 -19 0 -68 37 -187 140 -89 78
-162 143 -162 145 0 3 158 5 352 5 193 0 349 -2 347 -4z m-706 -176 c134 -117
152 -136 134 -142 -12 -3 -89 -6 -170 -7 -132 -1 -148 1 -155 17 -10 23 -9
198 1 245 6 27 12 35 21 30 7 -5 83 -69 169 -143z m904 113 c9 -43 10 -239 1
-248 -3 -3 -83 -4 -177 -3 l-173 3 163 143 c89 78 166 142 170 142 4 0 12 -17
16 -37z m-57 -390 c0 -19 -47 -82 -100 -134 -82 -80 -219 -149 -297 -149 -23
0 -23 0 -23 139 l0 140 48 4 c93 7 372 7 372 0z m-560 -143 c0 -140 0 -140
-23 -140 -38 0 -118 27 -180 61 -64 34 -176 139 -201 188 l-17 31 211 0 210 0
0 -140z"/>
</g>
</svg>
