<?xml version="1.0" standalone="no"?>
<!DOCTYPE svg PUBLIC "-//W3C//DTD SVG 20010904//EN"
 "http://www.w3.org/TR/2001/REC-SVG-20010904/DTD/svg10.dtd">
<svg version="1.0" xmlns="http://www.w3.org/2000/svg"
 width="152.000000pt" height="165.000000pt" viewBox="0 0 152.000000 165.000000"
 preserveAspectRatio="xMidYMid meet">

<g transform="translate(0.000000,165.000000) scale(0.100000,-0.100000)"
fill="#000000" stroke="none">
<path d="M690 1570 c-124 -16 -248 -73 -352 -163 -106 -92 -185 -221 -228
-372 -32 -112 -32 -277 -1 -390 71 -254 247 -441 486 -515 99 -31 271 -31 370
0 238 74 413 259 485 515 18 62 23 106 23 195 0 133 -23 230 -80 344 -137 272
-411 422 -703 386z m15 -302 c-4 -90 -8 -169 -10 -175 -3 -10 -55 -13 -215
-13 -115 0 -210 2 -210 5 0 16 47 96 82 140 85 107 238 202 331 204 l28 1 -6
-162z m241 145 c132 -45 260 -156 323 -280 l21 -43 -231 0 -231 0 6 78 c3 42
7 119 8 169 3 92 3 93 29 93 14 0 48 -8 75 -17z m390 -509 c8 -68 -1 -167 -23
-246 l-16 -58 -201 0 -201 0 25 24 c77 74 358 319 375 326 32 14 33 13 41 -46z
m-275 32 c-22 -27 -302 -271 -310 -271 -11 0 -330 267 -330 278 -1 4 146 7
325 7 274 0 325 -2 315 -14z m-552 -251 c45 -38 81 -70 81 -72 0 -1 -74 -3
-164 -3 l-165 0 -16 56 c-18 62 -31 213 -21 239 5 13 25 0 105 -68 55 -47 136
-115 180 -152z m187 -322 c-4 -59 -9 -109 -12 -112 -8 -9 -115 30 -167 61 -56
33 -126 91 -158 132 l-20 26 182 0 182 0 -7 -107z m514 98 c0 -17 -105 -113
-160 -145 -65 -38 -108 -55 -172 -65 l-48 -8 0 107 c0 59 3 110 7 113 10 11
373 8 373 -2z"/>
</g>
</svg>
